<?xml version="1.0" encoding="UTF-8" standalone="no"?>
<!-- Created with Inkscape (http://www.inkscape.org/) -->

<svg
   xmlns:dc="http://purl.org/dc/elements/1.1/"
   xmlns:cc="http://creativecommons.org/ns#"
   xmlns:rdf="http://www.w3.org/1999/02/22-rdf-syntax-ns#"
   xmlns:svg="http://www.w3.org/2000/svg"
   xmlns="http://www.w3.org/2000/svg"
   xmlns:sodipodi="http://sodipodi.sourceforge.net/DTD/sodipodi-0.dtd"
   xmlns:inkscape="http://www.inkscape.org/namespaces/inkscape"
   width="744.09448819"
   height="1052.3622047"
   id="svg2"
   version="1.1"
   inkscape:version="0.48.3.1 r9886"
   sodipodi:docname="New document 1">
  <defs
     id="defs4" />
  <sodipodi:namedview
     id="base"
     pagecolor="#ffffff"
     bordercolor="#666666"
     borderopacity="1.0"
     inkscape:pageopacity="0.0"
     inkscape:pageshadow="2"
     inkscape:zoom="0.7"
     inkscape:cx="378.38852"
     inkscape:cy="587.99913"
     inkscape:document-units="px"
     inkscape:current-layer="layer1"
     showgrid="false"
     inkscape:window-width="753"
     inkscape:window-height="516"
     inkscape:window-x="79"
     inkscape:window-y="74"
     inkscape:window-maximized="0" />
  <metadata
     id="metadata7">
    <rdf:RDF>
      <cc:Work
         rdf:about="">
        <dc:format>image/svg+xml</dc:format>
        <dc:type
           rdf:resource="http://purl.org/dc/dcmitype/StillImage" />
        <dc:title></dc:title>
      </cc:Work>
    </rdf:RDF>
  </metadata>
  <g
     inkscape:label="Layer 1"
     inkscape:groupmode="layer"
     id="layer1">
    <path
       sodipodi:type="arc"
       style="fill:#ff0000;fill-rule:evenodd;stroke:#ff0000;stroke-width:1px;stroke-linecap:butt;stroke-linejoin:miter;stroke-opacity:1"
       id="path2989"
       sodipodi:cx="375.71429"
       sodipodi:cy="413.79074"
       sodipodi:rx="158.57143"
       sodipodi:ry="158.57143"
       d="m 534.28572,413.79074 a 158.57143,158.57143 0 1 1 -317.14285,0 158.57143,158.57143 0 1 1 317.14285,0 z" />
    <path
       sodipodi:type="star"
       style="fill:#ff0000;fill-rule:evenodd;stroke:#ff0000;stroke-width:1px;stroke-linecap:butt;stroke-linejoin:miter;stroke-opacity:1"
       id="path2991"
       sodipodi:sides="3"
       sodipodi:cx="216.17264"
       sodipodi:cy="634.15906"
       sodipodi:r1="37.579845"
       sodipodi:r2="78.146156"
       sodipodi:arg1="-0.93804741"
       sodipodi:arg2="0.53597667"
       inkscape:flatsided="false"
       inkscape:rounded="0.44361348"
       inkscape:randomized="0"
       d="m 238.396,603.85448 c 18.09046,32.26073 48.98158,33.4444 44.96438,70.21233 -2.5221,23.08386 -28.83548,-5.21844 -52.05489,-5.50947 -36.98384,-0.46356 -53.45448,25.69709 -83.28785,3.83413 -18.73016,-13.72613 18.93704,-22.36304 30.79879,-42.32612 18.89337,-31.79716 4.4729,-59.14149 38.32347,-74.04646 21.25226,-9.35773 9.89844,27.58148 21.2561,47.83559 z"
       inkscape:transform-center-x="-15.922357"
       inkscape:transform-center-y="27.602587"
       transform="matrix(0.9803114,-0.19745775,0.19745775,0.9803114,-86.635014,-53.48383)" />
    <path
       sodipodi:type="star"
       style="fill:#ff0000;fill-rule:evenodd;stroke:#ff0000;stroke-width:1px;stroke-linecap:butt;stroke-linejoin:miter;stroke-opacity:1"
       id="path2991-8"
       sodipodi:sides="3"
       sodipodi:cx="216.17264"
       sodipodi:cy="634.15906"
       sodipodi:r1="37.579845"
       sodipodi:r2="78.146156"
       sodipodi:arg1="-0.93804741"
       sodipodi:arg2="0.53597667"
       inkscape:flatsided="false"
       inkscape:rounded="0.44361348"
       inkscape:randomized="0"
       d="m 238.396,603.85448 c 18.09046,32.26073 48.98158,33.4444 44.96438,70.21233 -2.5221,23.08386 -28.83548,-5.21844 -52.05489,-5.50947 -36.98384,-0.46356 -53.45448,25.69709 -83.28785,3.83413 -18.73016,-13.72613 18.93704,-22.36304 30.79879,-42.32612 18.89337,-31.79716 4.4729,-59.14149 38.32347,-74.04646 21.25226,-9.35773 9.89844,27.58148 21.2561,47.83559 z"
       inkscape:transform-center-x="-31.865279"
       inkscape:transform-center-y="-40.03898"
       transform="matrix(-0.88071455,-0.47364741,0.47364741,-0.88071455,186.20828,914.39297)" />
    <path
       sodipodi:type="star"
       style="fill:#ff0000;fill-rule:evenodd;stroke:#ff0000;stroke-width:1px;stroke-linecap:butt;stroke-linejoin:miter;stroke-opacity:1"
       id="path2991-2"
       sodipodi:sides="3"
       sodipodi:cx="216.17264"
       sodipodi:cy="634.15906"
       sodipodi:r1="37.579845"
       sodipodi:r2="78.146156"
       sodipodi:arg1="-0.93804741"
       sodipodi:arg2="0.53597667"
       inkscape:flatsided="false"
       inkscape:rounded="0.44361348"
       inkscape:randomized="0"
       d="m 238.396,603.85448 c 18.09046,32.26073 48.98158,33.4444 44.96438,70.21233 -2.5221,23.08386 -28.83548,-5.21844 -52.05489,-5.50947 -36.98384,-0.46356 -53.45448,25.69709 -83.28785,3.83413 -18.73016,-13.72613 18.93704,-22.36304 30.79879,-42.32612 18.89337,-31.79716 4.4729,-59.14149 38.32347,-74.04646 21.25226,-9.35773 9.89844,27.58148 21.2561,47.83559 z"
       inkscape:transform-center-x="-14.807468"
       inkscape:transform-center-y="27.419097"
       transform="matrix(0.98312409,-0.18293998,0.18293998,0.98312409,202.237,-135.76031)" />
    <path
       sodipodi:type="star"
       style="fill:#ff0000"
       id="path3020"
       sodipodi:sides="3"
       sodipodi:cx="58.588848"
       sodipodi:cy="292.72748"
       sodipodi:r1="63.647625"
       sodipodi:r2="27.249758"
       sodipodi:arg1="0.015871678"
       sodipodi:arg2="0.32290119"
       inkscape:flatsided="false"
       inkscape:rounded="0.44361348"
       inkscape:randomized="0"
       d="m 122.22846,293.73763 c 11.34046,12.80737 -22.848013,-0.67762 -37.798154,7.63672 -28.853613,16.04658 -26.186094,39.36594 -58.53608,45.96157 -16.7617421,3.41744 12.010843,-19.44815 12.285484,-36.55252 0.530056,-33.01125 -20.998857,-42.36079 -10.535849,-73.67452 5.421278,-16.22481 10.837168,20.12577 25.512667,28.9158 28.323558,16.96467 47.184952,2.99486 69.071932,27.71295 z"
       inkscape:transform-center-x="20.500089"
       transform="matrix(0.5683978,-0.82275388,0.77927394,0.53835977,-58.959755,280.63349)" />
    <path
       sodipodi:type="star"
       style="fill:#ff0000"
       id="path3020-5"
       sodipodi:sides="3"
       sodipodi:cx="58.588848"
       sodipodi:cy="292.72748"
       sodipodi:r1="63.647625"
       sodipodi:r2="27.249758"
       sodipodi:arg1="0.015871678"
       sodipodi:arg2="0.32290119"
       inkscape:flatsided="false"
       inkscape:rounded="0.44361348"
       inkscape:randomized="0"
       d="m 122.22846,293.73763 c 11.34046,12.80737 -22.848013,-0.67762 -37.798154,7.63672 -28.853613,16.04658 -26.186094,39.36594 -58.53608,45.96157 -16.7617421,3.41744 12.010843,-19.44815 12.285484,-36.55252 0.530056,-33.01125 -20.998857,-42.36079 -10.535849,-73.67452 5.421278,-16.22481 10.837168,20.12577 25.512667,28.9158 28.323558,16.96467 47.184952,2.99486 69.071932,27.71295 z"
       inkscape:transform-center-x="20.500089"
       transform="matrix(0.5683978,-0.82275388,0.77927394,0.53835977,227.81868,171.17238)" />
    <path
       sodipodi:type="star"
       style="fill:#ff0000"
       id="path3020-3"
       sodipodi:sides="3"
       sodipodi:cx="58.588848"
       sodipodi:cy="292.72748"
       sodipodi:r1="63.647625"
       sodipodi:r2="27.249758"
       sodipodi:arg1="0.015871678"
       sodipodi:arg2="0.32290119"
       inkscape:flatsided="false"
       inkscape:rounded="0.44361348"
       inkscape:randomized="0"
       d="m 122.22846,293.73763 c 11.34046,12.80737 -22.848013,-0.67762 -37.798154,7.63672 -28.853613,16.04658 -26.186094,39.36594 -58.53608,45.96157 -16.7617421,3.41744 12.010843,-19.44815 12.285484,-36.55252 0.530056,-33.01125 -20.998857,-42.36079 -10.535849,-73.67452 5.421278,-16.22481 10.837168,20.12577 25.512667,28.9158 28.323558,16.96467 47.184952,2.99486 69.071932,27.71295 z"
       inkscape:transform-center-x="20.500089"
       transform="matrix(0.5683978,-0.82275388,0.77927394,0.53835977,189.43288,458.05571)" />
    <path
       sodipodi:type="star"
       style="fill:#ff0000;stroke:#ff0000;stroke-opacity:1"
       id="path3815"
       sodipodi:sides="3"
       sodipodi:cx="107.07617"
       sodipodi:cy="80.595436"
       sodipodi:r1="42.719627"
       sodipodi:r2="16.851595"
       sodipodi:arg1="0.3363682"
       sodipodi:arg2="0.44221545"
       inkscape:flatsided="false"
       inkscape:rounded="0.44361348"
       inkscape:randomized="0"
       d="m 147.40177,94.695519 c 6.56907,9.493051 -13.7522,-9.035857 -25.09503,-6.888563 -22.6195,4.282061 -24.659995,18.782034 -47.6044,20.661434 -11.50576,0.94245 14.701383,-7.39183 18.513188,-18.288654 7.601372,-21.730093 -3.935719,-30.747199 5.908873,-51.557338 4.936689,-10.435505 -0.949182,16.427684 6.581849,25.177219 15.01812,17.448031 28.59571,11.965166 41.69552,30.895902 z"
       inkscape:transform-center-x="18.621338"
       inkscape:transform-center-y="-8.3013232"
       transform="matrix(0.86061058,0.50926362,-0.50926362,0.86061058,343.94778,126.21133)" />
    <path
       sodipodi:type="star"
       style="fill:#ff0000;stroke:#ff0000;stroke-opacity:1"
       id="path3815-7"
       sodipodi:sides="3"
       sodipodi:cx="107.07617"
       sodipodi:cy="80.595436"
       sodipodi:r1="42.719627"
       sodipodi:r2="16.851595"
       sodipodi:arg1="0.3363682"
       sodipodi:arg2="0.44221545"
       inkscape:flatsided="false"
       inkscape:rounded="0.44361348"
       inkscape:randomized="0"
       d="m 147.40177,94.695519 c 6.56907,9.493051 -13.7522,-9.035857 -25.09503,-6.888563 -22.6195,4.282061 -24.659995,18.782034 -47.6044,20.661434 -11.50576,0.94245 14.701383,-7.39183 18.513188,-18.288654 7.601372,-21.730093 -3.935719,-30.747199 5.908873,-51.557338 4.936689,-10.435505 -0.949182,16.427684 6.581849,25.177219 15.01812,17.448031 28.59571,11.965166 41.69552,30.895902 z"
       inkscape:transform-center-x="15.841257"
       inkscape:transform-center-y="-4.4064803"
       transform="matrix(0.6698097,0.7425328,-0.7425328,0.6698097,434.31665,131.86061)" />
    <path
       sodipodi:type="star"
       style="fill:#ff0000;stroke:#ff0000;stroke-opacity:1"
       id="path3815-3"
       sodipodi:sides="3"
       sodipodi:cx="107.07617"
       sodipodi:cy="80.595436"
       sodipodi:r1="42.719627"
       sodipodi:r2="16.851595"
       sodipodi:arg1="0.3363682"
       sodipodi:arg2="0.44221545"
       inkscape:flatsided="false"
       inkscape:rounded="0.44361348"
       inkscape:randomized="0"
       d="m 147.40177,94.695519 c 6.56907,9.493051 -13.7522,-9.035857 -25.09503,-6.888563 -22.6195,4.282061 -24.659995,18.782034 -47.6044,20.661434 -11.50576,0.94245 14.701383,-7.39183 18.513188,-18.288654 7.601372,-21.730093 -3.935719,-30.747199 5.908873,-51.557338 4.936689,-10.435505 -0.949182,16.427684 6.581849,25.177219 15.01812,17.448031 28.59571,11.965166 41.69552,30.895902 z"
       inkscape:transform-center-x="-3.4762159"
       inkscape:transform-center-y="-5.3825402"
       transform="matrix(0.12835494,0.9917283,-0.9917283,0.12835494,584.18612,217.06305)" />
    <path
       sodipodi:type="star"
       style="fill:#ff0000;stroke:#ff0000;stroke-opacity:1"
       id="path3815-1"
       sodipodi:sides="3"
       sodipodi:cx="107.07617"
       sodipodi:cy="80.595436"
       sodipodi:r1="42.719627"
       sodipodi:r2="16.851595"
       sodipodi:arg1="0.3363682"
       sodipodi:arg2="0.44221545"
       inkscape:flatsided="false"
       inkscape:rounded="0.44361348"
       inkscape:randomized="0"
       d="m 147.40177,94.695519 c 6.56907,9.493051 -13.7522,-9.035857 -25.09503,-6.888563 -22.6195,4.282061 -24.659995,18.782034 -47.6044,20.661434 -11.50576,0.94245 14.701383,-7.39183 18.513188,-18.288654 7.601372,-21.730093 -3.935719,-30.747199 5.908873,-51.557338 4.936689,-10.435505 -0.949182,16.427684 6.581849,25.177219 15.01812,17.448031 28.59571,11.965166 41.69552,30.895902 z"
       inkscape:transform-center-x="-11.321495"
       inkscape:transform-center-y="-13.624575"
       transform="matrix(-0.24473656,0.96958961,-0.96958961,-0.24473656,639.51893,300.97215)" />
    <path
       sodipodi:type="star"
       style="fill:#ff0000;stroke:#ff0000;stroke-opacity:1"
       id="path3815-76"
       sodipodi:sides="3"
       sodipodi:cx="107.07617"
       sodipodi:cy="80.595436"
       sodipodi:r1="42.719627"
       sodipodi:r2="16.851595"
       sodipodi:arg1="0.3363682"
       sodipodi:arg2="0.44221545"
       inkscape:flatsided="false"
       inkscape:rounded="0.44361348"
       inkscape:randomized="0"
       d="m 147.40177,94.695519 c 6.56907,9.493051 -13.7522,-9.035857 -25.09503,-6.888563 -22.6195,4.282061 -24.659995,18.782034 -47.6044,20.661434 -11.50576,0.94245 14.701383,-7.39183 18.513188,-18.288654 7.601372,-21.730093 -3.935719,-30.747199 5.908873,-51.557338 4.936689,-10.435505 -0.949182,16.427684 6.581849,25.177219 15.01812,17.448031 28.59571,11.965166 41.69552,30.895902 z"
       inkscape:transform-center-x="18.621338"
       inkscape:transform-center-y="-8.3013232"
       transform="matrix(0.86061058,0.50926362,-0.50926362,0.86061058,470.16494,379.97174)" />
  </g>
</svg>
